<?xml version="1.0" standalone="no"?>
<!DOCTYPE svg PUBLIC "-//W3C//DTD SVG 20010904//EN"
 "http://www.w3.org/TR/2001/REC-SVG-20010904/DTD/svg10.dtd">
<svg version="1.0" xmlns="http://www.w3.org/2000/svg"
 width="1012.000000pt" height="537.000000pt" viewBox="0 0 1012.000000 537.000000"
 preserveAspectRatio="xMidYMid meet">

<g transform="translate(0.000000,537.000000) scale(0.100000,-0.100000)"
fill="#000000" stroke="none">
<path d="M584 4423 c18 -122 98 -215 250 -288 153 -74 258 -96 484 -102 l192
-6 0 -287 0 -287 -37 -7 c-21 -3 -56 -6 -78 -6 -66 0 -133 -39 -212 -123 -40
-42 -79 -89 -87 -106 -25 -47 -63 -190 -70 -261 -15 -147 -18 -161 -43 -191
-14 -17 -51 -43 -82 -59 -63 -31 -83 -31 -197 9 -48 17 -67 20 -88 12 -53 -21
-42 -64 30 -113 22 -15 328 -162 681 -328 649 -304 701 -324 717 -284 23 59
-6 112 -83 153 -33 18 -105 67 -158 109 l-98 77 66 6 c71 6 74 7 139 58 164
128 190 191 190 467 0 178 12 237 58 292 22 27 36 34 79 39 45 5 58 2 88 -18
l35 -24 -2 -635 -3 -635 -24 -48 c-41 -85 -121 -118 -286 -120 -201 -2 -378
64 -1205 447 -102 47 -194 86 -206 86 -25 0 -60 -36 -69 -71 -5 -19 0 -33 17
-52 15 -17 193 -106 504 -251 638 -298 818 -372 1050 -432 93 -25 128 -29 234
-28 272 1 446 94 508 271 l18 51 738 -344 c407 -189 751 -345 766 -346 56 -4
77 49 45 112 -19 37 11 22 -775 388 -355 165 -662 308 -682 318 l-38 18 0
1293 0 1293 -1186 0 -1186 0 6 -47z m1776 -649 l0 -476 -39 31 c-50 40 -117
69 -175 77 l-46 7 0 382 0 382 128 36 c70 19 128 36 130 36 1 1 2 -213 2 -475z"/>
<path d="M3217 4462 c-10 -15 15 -118 38 -157 97 -168 380 -275 730 -276 181
-1 322 26 705 132 157 43 288 79 293 79 4 0 7 -135 7 -300 0 -165 -2 -300 -5
-300 -2 0 -34 21 -70 46 -36 25 -105 62 -153 83 l-87 36 -150 -1 c-237 -2
-363 -43 -479 -157 -79 -77 -141 -201 -186 -367 -17 -63 -38 -138 -45 -165
-17 -61 -63 -110 -117 -127 -50 -15 -131 3 -288 66 -93 37 -117 43 -139 35
-14 -6 -29 -16 -33 -22 -10 -15 -10 -69 0 -84 11 -17 1003 -481 1092 -510 90
-30 283 -43 370 -24 80 17 178 69 237 126 l53 51 2 -320 3 -320 1005 -468
c657 -305 1016 -467 1037 -468 26 0 36 6 48 30 43 83 56 76 -765 458 l-725
338 -5 1294 -5 1295 -1182 3 c-650 1 -1184 -1 -1186 -6z"/>
<path d="M5845 4423 c21 -143 122 -247 304 -313 103 -38 148 -48 291 -66 198
-24 374 -13 575 37 81 21 568 157 592 166 10 4 13 -42 13 -227 l0 -231 -22 7
c-13 3 -34 12 -48 19 -14 7 -65 23 -115 36 -75 20 -114 24 -235 24 -163 0
-245 -15 -383 -69 -129 -51 -211 -111 -419 -307 -151 -143 -206 -189 -254
-211 -74 -35 -146 -47 -211 -38 -37 6 -44 5 -31 -4 10 -6 341 -162 735 -347
l718 -336 79 156 c93 185 149 274 219 349 85 90 159 111 207 60 17 -19 20 -35
20 -113 0 -196 -78 -379 -233 -542 -123 -131 -233 -186 -395 -199 -62 -5 -98
-1 -188 19 -151 34 -271 83 -741 302 -358 166 -404 185 -425 174 -30 -15 -57
-49 -58 -71 0 -41 55 -72 465 -264 1118 -523 1055 -499 1310 -499 149 0 165 2
240 28 235 83 364 241 405 501 19 116 8 383 -19 467 -30 93 -89 178 -200 289
-146 145 -260 193 -461 193 -85 0 -116 -5 -165 -23 -129 -50 -262 -163 -412
-352 l-85 -106 -67 35 c-36 20 -70 39 -74 43 -23 20 89 176 223 311 229 230
397 295 667 258 110 -15 169 -37 506 -194 l297 -138 0 -631 0 -631 683 -317
c375 -174 690 -320 700 -323 15 -6 17 1 17 76 l0 84 -393 182 -392 181 -5 729
-5 728 -295 137 c-162 75 -298 137 -302 137 -5 1 -8 -39 -8 -89 0 -54 -4 -90
-10 -90 -6 0 -64 27 -130 60 l-120 60 0 465 0 465 -1186 0 -1185 0 6 -47z"/>
</g>
</svg>
